<?xml version="1.0" standalone="no"?>
<!DOCTYPE svg PUBLIC "-//W3C//DTD SVG 20010904//EN"
 "http://www.w3.org/TR/2001/REC-SVG-20010904/DTD/svg10.dtd">
<svg version="1.0" xmlns="http://www.w3.org/2000/svg"
 width="606.000000pt" height="606.000000pt" viewBox="0 0 606.000000 606.000000"
 preserveAspectRatio="xMidYMid meet">
<metadata>
Created by potrace 1.11, written by Peter Selinger 2001-2013
</metadata>
<g transform="translate(0.000000,606.000000) scale(0.100000,-0.100000)"
fill="#000000" stroke="none">
<path d="M2999 5934 c-19 -20 -50 -54 -69 -75 -19 -20 -54 -59 -77 -86 -22
-26 -55 -64 -73 -83 -18 -19 -55 -61 -83 -94 -60 -67 -83 -93 -141 -156 -22
-25 -72 -81 -111 -125 -38 -44 -79 -89 -90 -101 -11 -11 -49 -54 -85 -94 -36
-41 -72 -81 -80 -90 -8 -9 -49 -54 -90 -100 -41 -47 -77 -87 -80 -90 -3 -3
-37 -41 -75 -85 -39 -44 -79 -89 -90 -101 -11 -11 -51 -56 -90 -100 -65 -73
-150 -168 -329 -369 -123 -138 -161 -180 -166 -185 -3 -3 -23 -25 -44 -50 -22
-25 -73 -82 -114 -127 -41 -46 -82 -91 -91 -101 -9 -11 -45 -52 -81 -92 -36
-40 -73 -82 -83 -94 -10 -12 -49 -54 -85 -95 -37 -41 -75 -83 -85 -95 -36 -41
-237 -266 -301 -336 -23 -25 -93 -103 -156 -175 -63 -71 -132 -149 -154 -172
-68 -74 -68 -75 -38 -109 15 -16 61 -68 102 -114 41 -47 77 -87 80 -90 6 -6
234 -261 276 -309 16 -18 40 -46 54 -61 28 -30 143 -159 169 -188 37 -43 149
-169 192 -216 50 -56 136 -152 184 -207 99 -111 285 -320 315 -352 l36 -38 35
38 c32 35 276 307 323 360 19 22 46 31 46 16 0 -5 17 -26 37 -48 63 -68 125
-137 203 -225 41 -46 84 -94 95 -105 11 -12 35 -39 54 -61 42 -48 157 -177
191 -214 14 -15 54 -60 90 -100 36 -40 70 -78 75 -84 6 -6 48 -54 95 -106 46
-52 89 -100 95 -106 5 -7 41 -47 80 -90 38 -44 92 -102 120 -131 l50 -52 147
167 c81 92 160 181 175 197 16 17 62 68 102 115 41 47 80 90 85 95 6 6 119
132 251 280 132 149 242 272 245 275 4 4 75 83 171 192 14 16 25 7 155 -139
76 -86 164 -184 194 -216 l56 -59 68 78 c38 44 92 104 120 135 28 30 78 86
111 123 33 38 71 81 85 96 14 15 54 60 90 100 36 41 70 78 75 84 6 6 44 49 85
96 41 47 80 90 85 96 6 6 42 46 80 89 39 44 115 129 169 190 55 60 115 128
135 150 20 22 70 78 111 125 41 47 80 90 86 95 5 6 38 42 72 81 l62 71 -21 24
c-35 41 -190 214 -280 314 -20 22 -77 85 -125 141 -102 115 -402 451 -424 474
-8 9 -45 50 -81 91 -36 41 -108 121 -159 179 -52 58 -106 118 -120 134 -27 31
-53 59 -109 121 -20 22 -70 78 -111 125 -41 47 -80 90 -85 96 -6 6 -35 39 -65
74 -30 34 -66 74 -80 89 -14 14 -61 67 -105 116 -43 50 -93 106 -111 125 -26
30 -229 257 -329 369 -16 19 -35 39 -40 45 -6 6 -66 74 -135 151 -68 77 -141
158 -161 180 -20 22 -59 65 -85 96 -27 30 -123 138 -213 240 -90 101 -167 188
-171 192 -5 5 -23 -8 -41 -29z m62 -473 c23 -27 122 -139 170 -192 13 -14 53
-58 89 -99 36 -40 70 -78 75 -84 6 -6 44 -49 85 -96 41 -47 77 -87 80 -90 3
-3 82 -90 175 -195 93 -104 171 -192 174 -195 3 -3 37 -41 76 -85 38 -44 72
-82 75 -85 3 -3 41 -45 85 -94 44 -50 87 -97 95 -106 8 -9 44 -50 80 -90 36
-40 70 -78 75 -84 6 -6 41 -47 80 -91 38 -44 79 -89 90 -100 11 -11 67 -74
125 -140 90 -103 138 -157 210 -235 8 -9 46 -52 85 -96 38 -43 86 -97 106
-119 45 -50 122 -136 219 -245 41 -46 93 -105 116 -130 22 -25 56 -63 76 -85
20 -22 54 -60 77 -85 22 -25 41 -48 41 -52 0 -4 -23 -34 -52 -65 -29 -32 -66
-73 -83 -92 -16 -19 -41 -47 -55 -62 -33 -35 -50 -54 -285 -319 -109 -124
-202 -227 -205 -230 -3 -3 -41 -45 -85 -95 -44 -49 -82 -92 -85 -95 -3 -3 -38
-42 -79 -88 -41 -45 -77 -81 -80 -80 -7 3 -55 56 -161 174 -25 28 -76 85 -114
128 -38 42 -77 87 -88 101 l-19 24 -37 -42 c-20 -23 -48 -54 -62 -68 -14 -15
-46 -51 -72 -81 -26 -30 -58 -66 -70 -80 -13 -13 -54 -60 -93 -103 -38 -43
-74 -83 -80 -89 -5 -6 -44 -49 -85 -96 -41 -47 -80 -90 -85 -96 -6 -6 -35 -39
-65 -74 -30 -34 -71 -79 -90 -99 -37 -40 -152 -169 -183 -205 -10 -12 -28 -32
-41 -46 -12 -14 -64 -72 -115 -130 -52 -58 -100 -112 -107 -119 -15 -16 -12
-19 -127 113 -29 33 -59 67 -68 75 -8 9 -71 79 -139 156 -69 77 -127 142 -130
145 -3 3 -61 68 -130 145 -69 77 -127 142 -130 145 -3 3 -39 43 -80 90 -41 47
-89 101 -107 120 -17 19 -40 44 -50 56 -24 28 -168 187 -215 239 l-37 40 -23
-25 c-13 -14 -72 -81 -133 -150 -60 -69 -126 -143 -147 -165 -20 -22 -46 -51
-58 -65 l-21 -24 -37 39 c-34 36 -232 259 -307 344 -16 19 -39 44 -50 55 -11
12 -51 57 -90 101 -38 44 -77 87 -85 95 -8 9 -47 52 -86 96 -39 43 -115 129
-169 189 -144 162 -159 179 -174 198 -13 17 1 36 144 193 6 6 44 48 85 94 41
46 80 88 85 94 6 6 44 49 85 96 41 47 77 87 80 90 3 3 57 64 120 135 63 72
120 135 126 140 5 6 41 46 80 90 38 44 72 82 75 85 3 3 66 73 139 155 74 83
139 155 144 161 11 11 18 19 141 159 39 43 77 86 85 95 16 17 95 105 246 275
49 55 91 102 94 105 7 7 152 170 186 209 16 19 36 41 45 50 8 9 89 99 179 201
90 102 180 202 199 224 40 43 39 42 136 152 93 107 99 113 106 113 3 1 17 -12
30 -28z"/>
</g>
</svg>
